<?xml version="1.0" encoding="UTF-8" standalone="no"?><!DOCTYPE svg PUBLIC "-//W3C//DTD SVG 1.1//EN" "http://www.w3.org/Graphics/SVG/1.1/DTD/svg11.dtd"><svg width="100%" height="100%" viewBox="0 0 3375 3409" version="1.1" xmlns="http://www.w3.org/2000/svg" xmlns:xlink="http://www.w3.org/1999/xlink" xml:space="preserve" xmlns:serif="http://www.serif.com/" style="fill-rule:evenodd;clip-rule:evenodd;stroke-linejoin:round;stroke-miterlimit:2;"><g id="Fundo"><path d="M2002.083,1058.486c384.406,0 384.814,-0.399 391.437,2.39c15.692,6.608 13.034,12.722 13.034,287.041c0,265.782 63.829,756.285 -436.49,1122.622c-120.677,88.36 -184.631,111.975 -196.181,120.292c-10.395,7.486 -1.035,622.654 -12.744,657.347c-4.909,14.547 -59.253,98.41 -63.846,103.066c-6.101,6.186 -12.908,4.187 -64.128,-87.652c-26.822,-48.091 -10.937,-616.785 -18.997,-661.416c-4.258,-23.577 -536.948,-211.587 -632.759,-808.45c-23.719,-147.761 -12.238,-718.452 -8.553,-725.022c6.832,-12.179 11.398,-10.479 575.061,-10.507c38.212,-0.002 57.069,15.121 56.706,-22.747c-2.064,-215.316 -3.422,-220.746 -10.894,-219.602c-93.478,14.321 -245.638,101.532 -265.677,113.017c-33.975,19.473 -55.322,-68.114 -55.661,-89.318c-0.34,-21.249 137.594,-63.82 150.188,-67.707c80.875,-24.961 153.383,-33.914 153.836,-34.027c9.299,-2.311 19.246,-68.21 19.666,-73.408c29.093,-360.406 38.199,-367.387 9.3,-394.663c-79.232,-74.781 -25.937,-163.624 -2.96,-183.978c124.806,-110.561 285.004,72.831 169.595,182.062c-43.413,41.089 -22.597,67.506 10.752,404.955c3.458,34.992 13.276,31.981 15.916,50.039c3.564,24.375 12.582,17.09 36.73,20.946c88.813,14.182 240.383,66.54 269.163,89.026c10.732,8.386 -12.354,118.029 -48.724,95.017c-120.325,-76.131 -269.361,-124.014 -277.447,-108.656c-8.527,16.196 -0.01,17.591 -2.353,228.788c-0.145,13.112 8.108,10.543 226.03,10.543Zm-969.155,726.732c-7.433,-52.805 -16.198,-115.079 -12.41,-666.449c0.099,-14.361 4.959,-12.488 19.065,-12.69c437.355,-6.238 1196.003,-0.735 1300,0.019c22.972,0.167 14.864,10.534 14.869,33.486c0.107,538.025 2.593,569.555 -20.233,687.305c-89.739,462.924 -491.074,684.097 -637.035,744.385c-9.836,4.062 -21.906,9.048 -123.124,-50.341c-207.069,-121.496 -470.129,-320.775 -541.132,-735.716Z" style="fill:#fefefe;"/><path d="M1731.88,1330.925c38.754,13.425 103.182,29.366 82.548,-37.181c-9.822,-31.676 64.527,41.29 -3.571,63.802c-49.378,16.323 -71.383,-20.093 -77.283,15.094c-1.155,6.889 6.18,14.715 -3.155,19.468c-27.964,14.239 -27.775,-2.786 -23.692,-6.438c14.21,-12.711 -62.653,-13.947 -33.672,16.28c28.008,29.212 80.305,-30.33 150.988,57.405c5.261,6.53 66.206,-26.952 68.409,-44.922c5.393,-43.996 18.192,-36.889 52.868,-64.673c23.826,-19.091 26.39,-11.922 56.555,-15.714c19.12,-2.404 18.899,3.9 37.684,0.885c21.389,-3.433 73.22,75.546 41.794,70.798c-9.911,-1.497 -9.95,-7.941 -18.466,-1.47c-16.374,12.441 -106.543,-12.449 -84.267,21.854c12.552,19.33 3.5,20.681 -5.084,23.585c-28.55,9.658 30.021,80.232 -9.197,63.732c-26.405,-11.109 14.331,18.488 3.741,24.206c-9.86,5.324 -60.597,-27.45 -33.436,-1.933c42.048,39.502 -14.643,12.091 -19.907,13.47c-4.742,1.242 -22.24,10.975 27.289,54.857c28.762,25.483 20.867,67.263 19.74,73.224c-2.662,14.086 54.986,-1.163 24.728,21.916c-17.753,13.541 -7.437,56.665 -6.287,61.473c3.987,16.668 -5.373,18.635 6.258,36.851c7.334,11.486 -14.378,10.462 -7.047,22.188c9.056,14.485 3.78,14.975 -1.002,24.673c-2.823,5.726 16.133,40.595 -25.44,22.518c-20.303,-8.828 -43.872,-55.505 -43.051,-73.123c0.065,-1.391 1.264,-27.135 -7.145,-15.872c-6.47,8.666 -10.398,41.073 4.691,57.152c6.866,7.317 -5.311,10.372 -33.754,-5.241c-22.686,-12.453 -22.061,-14.244 -26.652,-40.01c-1.288,-0.897 -2.577,-1.794 -3.865,-2.692c-11.366,0.716 -1.77,22.433 -129.279,59.592c-6.892,2.008 -6.002,2.438 -12.509,5.082c0.212,1.511 0.424,3.021 0.635,4.532c19.124,0.777 19.001,0.77 20.654,0.839c29.212,1.218 -1.895,16.009 -2.139,16.422c-0.166,0.281 192.058,38.326 112.73,154.967c-35.881,52.757 -8.645,56.713 36.831,101.293c46.318,45.405 58.636,32.102 123.694,38.507c25.255,2.486 42.513,73.533 20.589,54.922c-14.251,-12.097 -10.788,25.457 -25.846,14.165c-20.902,-15.675 -23.584,13.784 -32.85,22.375c-6.755,6.264 -47.488,-21.048 -48.053,-21.621c-20.116,-20.377 -45.746,13.94 -46.099,14.555c-14.37,24.984 -12.74,-5.735 -33.042,-30.746c-6.755,-8.321 11.746,-24.519 -15.502,-47.262c-22.87,-19.089 -22.7,13.287 -52.88,12.081c-16.266,-0.65 6.845,-22.696 -3.872,-20.946c-17.514,2.86 -20.767,6.478 -29.355,-8.663c-15.311,-2.36 -12.838,-8.329 -4.812,-22.151c16.979,-29.238 -18.251,-19.63 -30.792,-46.355c-13.108,-27.934 16.394,-25.929 19.131,-28.232c33,-27.764 -69.534,-75.497 -77.843,-53.147c-27.421,73.762 -33.819,72.105 -108.766,113.055c-68.639,37.504 -46.423,139.098 -9.259,136.959c4.327,-0.249 44.109,-2.539 54.173,-0.979c54.306,8.417 14.802,118.801 7.448,62.68c-1.216,-1.151 -2.431,-2.301 -3.647,-3.452c-12.67,1.649 -28.034,45.178 -32.269,23.659c-8.486,-43.123 -22.762,7.946 -29.756,9.114c-14.827,2.476 -52.151,-64.568 -92.68,-9.823c-6.901,9.322 -33.919,-37.778 -21.66,-86.753c3.769,-15.057 -68.703,-20.22 -35.459,-28.501c28.087,-6.996 -1.633,-10.286 -2.435,-10.704c-12.861,-6.711 2.405,-15.341 -8.639,-24.157c-20.23,-16.148 43.545,-10.391 36.885,-40.745c-3.026,-13.79 -7.02,-62.144 11.843,-55.295c67.249,24.419 52.581,-87.629 49.239,-88.694c-3.518,-1.122 -48.884,21.059 -80.482,-11.992c-1.084,-1.219 -30.383,-34.171 -19.448,-6.147c0.225,0.575 9.629,12.21 10.479,13.261c-14.497,15.166 -40.124,17.199 -38.693,-17.501c0.325,-7.879 -54.516,-18.544 -28.301,-52.822c11.614,-15.186 34.431,-11.156 36.302,-11.227c4.709,13.558 -10.039,13.222 -3.798,26.212c13.054,27.17 15.743,-10.593 15.857,-12.189c0.444,-6.235 0.238,-5.621 0.517,-12.181c33.787,-85.207 72.168,-71.718 133.062,-137.663c15.576,-16.869 5.273,-44.439 -6.228,-22.351c-6.891,13.235 -34.423,10.283 -35.172,-7.002c-0.602,-13.896 -0.603,-14.123 -11.241,-22.774c-18.038,-14.669 5.441,-26.001 -12.554,-41.397c-20.498,-17.537 -1.995,-38.522 -9.349,-48.677c-34.136,-47.139 23.946,-118.148 25.267,-95.711c1.531,26.002 -24.67,35.837 30.712,97.68c110.394,123.273 62.209,149.938 -26.897,228.22c-0.559,0.491 -77.554,59.537 -33.595,94.815c44.607,35.797 65.593,-46.839 67.285,-53.505c34.692,-136.609 129.904,-95.839 127.173,-212.617c-0.527,-22.55 -18.307,10.894 -37.232,23.074c-5.377,3.46 -13.309,1.167 -20.098,-77.357c-1.289,-14.912 -13.277,21.86 -14.389,23.253c-17.361,21.76 -20.353,2.1 -32.414,-22.844c-12.338,-25.517 -2.593,-59.635 -16.797,-35.078c-18.887,32.652 -28.933,-14.849 -29.02,-44.521c-0.192,-64.928 -42.304,-120.331 -8.057,-175.405c7.443,-11.97 -19.318,-9.067 -10.272,-19.222c35.19,-39.502 29.3,-79.867 75.871,-119.96c12.462,-10.729 6.396,-18.178 22.898,-21.792c59.095,-12.94 47.964,-63.86 74.158,-42.01c25.356,21.15 28.04,16.206 55.734,35.073c9.881,6.732 39.091,0.572 51.712,11.66c43.599,38.302 66.188,20.989 62.095,43.693c-7.36,40.827 -30.022,52.645 -30.813,54.273Z" style="fill:#fefefe;"/><path d="M622.126,2588.438c7.678,-12.609 -5.003,-5.965 -28.43,-5.406c-126.512,3.02 -252.23,-132.172 -254.815,-147.416c-3.228,-19.033 4.108,-22.805 -20.234,-45.958c-19.603,-18.645 146.043,-19.058 75.21,-29.524c-98.418,-14.543 -215.646,-164.058 -213.619,-195.601c2.354,-36.628 -20.798,-29.924 -20.077,-49.976c0.032,-0.888 47.525,-15.436 150.409,10.489c18.213,4.589 13.922,-5.796 12.291,-6.21c-119.954,-30.404 -195.9,-195.649 -196.619,-216.754c-0.914,-26.814 -6.171,-25.143 -15.373,-50.168c-3.097,-8.424 4.347,-15.813 111.798,9.388c231.515,54.298 243.415,235.126 211.024,263.893c-19.748,17.539 -122.31,-2.268 -53.779,16.398c37.177,10.126 109.228,60.734 136.79,136.396c2.128,5.841 21.699,59.568 -7.05,77.382c-47.96,29.718 105.041,-26.328 198.835,143.576c11.865,21.494 -3.113,20.864 -5.165,36.537c-5.819,44.433 -38.174,28.301 -50.451,38.494c-23.649,19.633 14.722,-6.682 103.379,-6.147c123.127,0.743 199.736,105.479 186.934,116.95c-17.577,15.75 -0.784,24.949 -17.252,41.284c-114.251,113.32 -388.354,-30.467 -372.833,-69.444c6.953,-17.461 -0.976,-16.209 -16.189,-27.148c-20.669,-14.863 58.812,-34.006 85.215,-41.033Z" style="fill:#fefefe;"/><path d="M3052.554,2111.027c0.126,1.143 0.253,2.286 0.379,3.428c15.565,6.77 25.058,-4.241 69.97,-8.404c6.314,-0.585 47.157,-4.371 79.176,-3.85c29.741,0.484 -4.523,26.718 -8.487,41.491c-2.625,9.783 14.786,17.685 -40.083,84.539c-107.546,131.038 -171.733,119.9 -187.802,125.516c-11.753,4.107 3.001,3.806 40.662,10.164c34.821,5.879 34.642,6.447 37.668,6.933c41.14,6.61 -10.739,22.808 -8.012,39.548c8.199,50.326 -155.19,168.4 -250.664,164.885c-115.807,-4.263 79.431,24.802 60.732,42.033c-16.899,15.572 -26.827,11.935 -23.254,34.777c3.242,20.732 -181.894,158.181 -332.949,90.982c-53.143,-23.642 -46.694,-38.897 -47.205,-53.465c-0.38,-10.824 -19.915,-15.353 -9.755,-27.796c118.234,-144.809 223.378,-94.524 277.289,-93.593c1.551,0.74 16.403,7.822 20.975,4.634c5.719,-3.989 1.282,-6.625 -17.829,-10.698c-31.308,-8.341 -38.914,-6.407 -41.578,-39.113c-0.847,-10.395 -15.074,-7.434 -8.256,-21.391c91.32,-186.919 254.851,-120.85 201.691,-154.455c-12.621,-7.979 -4.096,-13.261 -15.85,-33.453c-7.002,-12.03 36.506,-146.79 153.166,-181.935c66.573,-20.056 -57.891,11.905 -69.283,-26.41c-18.605,-62.576 20.51,-177.824 156.664,-231.634c43.109,-17.037 183.119,-51.771 175.246,-29.889c-8.999,25.012 -16.259,22.848 -16.208,49.822c0.017,9.247 0.059,31.012 -52.793,102.828c-75.251,102.255 -124.958,108.226 -143.609,114.507Z" style="fill:#fefefe;"/><path d="M2818.75,1373.386c-5.793,0.893 -7.078,0.651 -6.968,6.701c4.54,2.608 31.183,17.914 52.834,38.628c101.3,96.916 122.57,132.712 117.963,262.563c-4.51,127.126 -132.323,12.346 -155.884,-16.425c-75.52,-92.221 -66.728,-275.484 -67.941,-291.832c-2.507,-33.807 -17.441,-24.88 -60.881,-70.895c-54.006,-57.208 -95.081,-176.324 -91.11,-191.578c10.03,-38.534 -29.487,-72.501 8.311,-60.015c19.794,6.539 164.936,54.487 226.907,128.121c72.233,85.828 84.471,234.652 -23.232,194.732Z" style="fill:#fefefe;"/><path d="M611.551,1481.331c-9.973,91.913 -21.225,194.203 -146.464,255.168c-71.177,34.648 -76.555,-13.88 -71.253,-126.075c5.1,-107.916 151.504,-208.878 169.891,-221.558c28.216,-19.458 -71.769,19.18 -81.606,-24.579c-21.375,-95.091 54.807,-204.773 141.389,-248.73c32.793,-16.649 163.151,-76.53 158.552,-55.158c-55.997,260.232 -122.925,258.972 -158.642,296.353c-6.206,6.495 -5.645,81.492 -11.868,124.579Z" style="fill:#fefefe;"/><path d="M2268.386,2713.003c94.677,-20.807 158.276,-3.096 311.394,107.438c11.313,8.167 2.078,10.216 -10.651,15.843c-18.601,8.223 3.041,31.547 -34.105,43.989c-257.635,86.298 -356.722,-51.569 -353.84,-74.028c3.871,-30.167 -25.866,-31.214 -10.388,-43.836c37.182,-30.32 89.246,-46.77 97.59,-49.406Z" style="fill:#fefefe;"/><path d="M1089.863,2716.817c9.864,2.279 69.28,16.009 114.647,53.566c12.053,9.978 -12.445,10.541 -9.954,44.169c3.35,45.233 -140.061,148.328 -342.009,77.807c-32.775,-11.445 -40.111,-14.054 -35.605,-36.804c2.445,-12.341 -32.76,-16.299 -23.358,-24.418c156.687,-135.305 271.155,-118.097 296.279,-114.32Z" style="fill:#fefefe;"/><path d="M2056.484,2808.786c21.364,4.194 110.07,21.609 235.45,136.472c9.899,9.069 -23.632,12.984 -23.797,19.131c-0.464,17.265 3.591,32.16 -82.75,45.822c-7.081,1.12 -183.142,37.54 -278.437,-83.626c-20.74,-26.37 -3.656,-32.995 -20.933,-62.329c-8.802,-14.945 44.101,-36.939 48.703,-38.853c54.033,-22.465 80.092,-23.207 121.763,-16.618Z" style="fill:#fefefe;"/><path d="M1385.659,2816.808c45.089,7.981 117.161,33.11 102.503,59.495c-18.981,34.167 -3.463,41.47 -29.401,70.063c-116.296,128.199 -349.365,67.032 -352.624,39.065c-0.718,-6.162 5.377,-15.319 -4.737,-18.977c-20.448,-7.395 -15.68,-12.093 -14.56,-13.196c157.014,-154.714 272.755,-139.807 298.82,-136.45Z" style="fill:#fefefe;"/><path d="M1385.216,2799.925c-10.98,-1.539 -72.472,-10.159 -124.737,-60.407c-107.537,-103.388 -107.731,-194.527 -124.696,-237.558c-4.719,-11.969 7.135,-9.3 8.084,-9.086c169.611,38.195 268.326,83.631 303.741,209.307c33.729,119.693 -40.163,99.54 -62.391,97.744Z" style="fill:#fefefe;"/><path d="M2201.762,2491.984c37.386,-7.529 38.599,-9.822 40.786,-5.809c1.405,2.579 0.208,2.715 -5.263,16.598c-15.338,38.917 -14.379,123.266 -120.813,226.272c-81.352,78.731 -202.583,88.347 -196.654,18.961c11.384,-133.243 88.159,-213.899 281.945,-256.021Z" style="fill:#fefefe;"/><path d="M2814.982,1031.25c-0.474,11.797 14.48,90.455 -79.033,56.615c-187.384,-67.81 -182.209,-308.6 -191.831,-340.031c-10.585,-34.575 156.694,62.603 199.148,108.896c72.941,79.539 70.309,138.861 71.716,174.52Z" style="fill:#fefefe;"/><path d="M824.332,802.23c-6.441,58.037 -28.414,265.341 -222.446,302.903c-50.147,9.708 -40.287,-73.645 -37.666,-107.242c12.017,-154.027 267.326,-265.353 268.41,-246.121c0.23,4.085 -1.328,3.369 -8.298,50.46Z" style="fill:#fefefe;"/><path d="M343.764,1890.852c-85.546,-10.072 -179.573,-117.681 -191.811,-297.085c-5.951,-87.236 -2.892,-92.717 3.8,-90.035c45.533,18.248 212.93,137.708 222.024,231.573c15.815,163.221 -24.192,153.623 -34.013,155.547Z" style="fill:#fefefe;"/><path d="M3031.272,1882.78c-0.571,-0.092 -32.077,15.698 -36.955,-72.414c-8.652,-156.273 80.067,-220.736 194.953,-296.333c34.601,-22.768 37.499,-19.81 38.635,-16.642c4.107,11.447 2.609,353.154 -196.633,385.389Z" style="fill:#fefefe;"/><path d="M489.533,2061.883c-40.72,-8.047 -45.075,-62.916 -46.291,-138.955c-0.4,-24.994 -2.025,-126.549 144.192,-277.204c20.795,-21.426 21.113,3.373 27.44,35.474c45.38,230.26 -36.019,364.156 -125.341,380.684Z" style="fill:#fefefe;"/><path d="M2885.455,2053.765c-10.644,-1.113 -53.015,-5.544 -102.501,-85.965c-61.574,-100.064 -21.811,-358.178 -3.191,-338.82c24.62,25.597 210.6,196.335 138.043,397.712c-7.782,21.597 -9.943,21.573 -32.35,27.073Z" style="fill:#fefefe;"/><path d="M1103.664,2593.796c-2.151,45.095 -9.627,166.49 -108.199,73.244c-21.338,-20.185 -109.662,-103.737 -68.204,-360.764c1.884,-11.677 0.512,-34.635 24.753,-12.449c189.095,173.062 152.397,283.647 151.65,299.969Z" style="fill:#fefefe;"/><path d="M2417.964,2292.951c18.919,-17.222 21.65,-28.416 26.694,-16.5c20.739,48.994 9.669,203.887 8.404,221.581c-9.027,126.3 -138.516,265.853 -171.526,153.955c-58.428,-198.064 108.312,-330.982 136.428,-359.037Z" style="fill:#fefefe;"/><path d="M2781.191,2357.69c-48.122,-13.199 -83.221,-76.624 -95.501,-105.728c-47.099,-111.623 15.765,-300.511 24.004,-325.268c7.982,-23.985 74.746,90.544 77.71,95.07c87.874,134.163 58.463,328.593 -6.213,335.926Z" style="fill:#fefefe;"/><path d="M528.503,1102.116c-6,116.466 -79.249,210.916 -128.543,127.666c-105.777,-178.644 45.384,-408.745 47.616,-408.795c10.601,-0.24 53.297,95.154 70.678,156.251c17.111,60.144 11.305,114.91 10.248,124.878Z" style="fill:#fefefe;"/><path d="M407.292,1468.808c-34.742,245.126 -164.59,33.213 -167.856,-54.216c-4.933,-132.066 2.574,-153.913 32.913,-262.777c7.42,-26.626 129.138,154.506 134.277,216.889c2.086,25.325 4.686,47.209 0.666,100.104Z" style="fill:#fefefe;"/><path d="M2846.351,1077.106c0.459,-22.909 -5.153,-56.677 18.579,-129.068c3.693,-11.265 35.246,-107.512 59.61,-135.663c5.83,-6.736 10.018,-0.585 53.762,97.526c89.86,201.541 -13.702,403.87 -77.627,326.901c-61.388,-73.914 -53.128,-146.161 -54.324,-159.695Z" style="fill:#fefefe;"/><path d="M703.397,2197.904c-6.77,109.167 -100.465,192.656 -132.803,156.562c-68.928,-76.932 -44.875,-274.101 86.426,-422.259c15.388,-17.363 61.308,163.304 49.048,244.854c-1.624,10.804 -1.316,10.271 -2.67,20.844Z" style="fill:#fefefe;"/><path d="M3136.066,1397.943c-1.953,15.502 -16.006,127.068 -91.309,172.645c-66.485,40.24 -129.672,-186.045 -17.188,-339.032c53.428,-72.667 70.323,-114.527 81.855,-70.807c30.747,116.567 28.521,116.924 26.641,237.194Z" style="fill:#fefefe;"/><path d="M789.468,2553.6c-3.106,-0.69 -19.379,-4.305 -32.57,-22.823c-114.674,-160.981 11.991,-380.25 26.229,-411.07c9.218,-19.954 15.082,0.278 26.621,20.238c123.9,214.321 52.718,402.382 -20.28,413.655Z" style="fill:#fefefe;"/><path d="M2585.502,2545.436c-46.835,-9.905 -156.699,-141.977 -27.339,-396.559c24.186,-47.598 27.18,-48.309 30.746,-45.719c2.539,1.844 37.899,77.124 53.905,120.12c47.818,128.454 15.578,301.975 -57.312,322.158Z" style="fill:#fefefe;"/><path d="M1718.846,1327.322c-50.347,-9.513 -50.369,-2.662 -66.918,3.124c-14.326,5.009 -2.828,-48.526 24.103,-34.633c45.946,23.703 45.107,27.927 42.815,31.509Z" style="fill:#fefefe;"/><path d="M1327.464,1917.229c4.192,0.614 8.384,1.228 12.576,1.842c-0.278,6.56 -0.073,5.946 -0.517,12.181c-0.114,1.596 -2.803,39.359 -15.857,12.189c-6.241,-12.99 8.507,-12.654 3.798,-26.212Z" style="fill:#fefefe;"/><path d="M1706.02,1358.745c-31.965,0.771 -13.94,-15.028 -12.414,-15.461c7.493,-2.126 46.922,6.67 12.414,15.461Z" style="fill:#fefefe;"/><path d="M1367.125,1991.666c-5.081,3.051 -4.85,2.74 -8.969,7.114c-0.85,-1.052 -10.255,-12.686 -10.479,-13.261c-10.935,-28.023 18.364,4.928 19.448,6.147Z" style="fill:#fefefe;fill-opacity:0.97;"/><path d="M2713.363,2562.15c19.111,4.073 23.548,6.71 17.829,10.698c-4.571,3.188 -19.423,-3.894 -20.975,-4.634c2.282,-1.863 2.042,3.543 4.609,1.448c0,-0 -1.347,-6.911 -1.464,-7.512Z" style="fill:#fefefe;"/><path d="M2818.75,1373.386c-4.311,3.661 -3.973,3.36 -4.311,3.661c-1.506,1.345 -0.865,1.439 -2.657,3.04c-0.11,-6.049 1.176,-5.808 6.968,-6.701Z" style="fill:#fefefe;"/></g></svg>